# xmcd
#
# Track frame offsets:
#	150
#	24162
#	53488
#	68159
#	86270
#	101184
#	126149
#	145148
#	164511
#	184178
#	205763
#	221945
#	246514
#	261706
#	278223
#	296293
#
# Disc length: 4129 seconds
# Revision: 0
# Processed by: cddbd v1.5.2PL0 Copyright (c) Steve Scherf et al.
# Submitted via: dBpowerAMP V12.0
#
DISCID=f6101f10
DTITLE=Various Artist - He Sings The Blues - CD1
DYEAR=2005
DGENRE=Blues
TTITLE0=George Michael - The First Time Ever I Saw Your Face
TTITLE1=Jamie Cullum - In The Wee Small Hours Of The Morning
TTITLE2=Ray Charles and Lou Rawls - That's Where It's At
TTITLE3=Joe Cocker - Sorry Seems To Be The Hardest Word
TTITLE4=Freddy King - Ain't No Sunshine
TTITLE5=Dr. John - It Don't Mean A Thing (If It Ain't Got That Swing)
TTITLE6=Amos Lee - Arms Of A Woman
TTITLE7=Roy Orbison - She's A Mystery To Me
TTITLE8=Aaron Neville - We Gotta Serve Somebody
TTITLE9=Al Green - Rainin' In My Heart
TTITLE10=Raul Midon - Suddenly
TTITLE11=Freddie Jackson - Me and Mrs Jones
TTITLE12=Bobby Womack - California Dreamin'
TTITLE13=David Mead - Human Nature
TTITLE14=Paul Carrack - Eyes Of Blue
TTITLE15=Bryan Ferry - Smoke Gets In Your Eyes
EXTD=
EXTT0=
EXTT1=
EXTT2=
EXTT3=
EXTT4=
EXTT5=
EXTT6=
EXTT7=
EXTT8=
EXTT9=
EXTT10=
EXTT11=
EXTT12=
EXTT13=
EXTT14=
EXTT15=
PLAYORDER=
